<?xml version="1.0" encoding="UTF-8"?>
<!DOCTYPE svg PUBLIC "-//W3C//DTD SVG 1.1//EN" "http://www.w3.org/Graphics/SVG/1.1/DTD/svg11.dtd">
<svg version="1.1" id="Layer_1" xmlns="http://www.w3.org/2000/svg" xmlns:xlink="http://www.w3.org/1999/xlink" x="0px" y="0px"
	 width="48.1px" height="48.3px" viewBox="0 0 48.1 48.3" style="enable-background:new 0 0 48.1 48.3;" xml:space="preserve">
<g><path style="opacity:1" fill="#fafcfc" d="M -0.5,-0.5 C 19.5,-0.5 39.5,-0.5 59.5,-0.5C 59.5,19.5 59.5,39.5 59.5,59.5C 39.5,59.5 19.5,59.5 -0.5,59.5C -0.5,39.5 -0.5,19.5 -0.5,-0.5 Z"/></g>
<g><path style="opacity:1" fill="#69bde1" d="M 32.5,17.5 C 33.1667,23.8333 33.8333,30.1667 34.5,36.5C 34.44,37.0431 34.1067,37.3764 33.5,37.5C 32.5033,30.8665 32.17,24.1998 32.5,17.5 Z"/></g>
<g><path style="opacity:1" fill="#2a97dd" d="M 34.5,36.5 C 33.8333,30.1667 33.1667,23.8333 32.5,17.5C 30.9519,17.1788 30.2852,16.1788 30.5,14.5C 32.5,14.5 34.5,14.5 36.5,14.5C 34.7286,21.6702 34.0619,29.0036 34.5,36.5 Z"/></g>
<g><path style="opacity:1" fill="#34a1dd" d="M 40.5,14.5 C 42.1667,14.5 43.8333,14.5 45.5,14.5C 45.5,15.5 45.5,16.5 45.5,17.5C 44.5,17.5 43.5,17.5 42.5,17.5C 42.2479,20.2438 42.9145,22.7438 44.5,25C 42.8084,27.9353 42.1417,31.1019 42.5,34.5C 43.5,34.5 44.5,34.5 45.5,34.5C 45.5,35.5 45.5,36.5 45.5,37.5C 43.8333,37.5 42.1667,37.5 40.5,37.5C 40.5,29.8333 40.5,22.1667 40.5,14.5 Z"/></g>
<g><path style="opacity:1" fill="#49a5df" d="M 23.5,14.5 C 24.7498,14.5774 25.5831,15.244 26,16.5C 27.1101,23.5164 27.2768,30.5164 26.5,37.5C 25.1667,30.8333 23.8333,30.8333 22.5,37.5C 22.1667,36.1667 21.8333,34.8333 21.5,33.5C 22.2334,27.1657 22.9001,20.8324 23.5,14.5 Z"/></g>
<g><path style="opacity:1" fill="#2f9ada" d="M 13.5,14.5 C 16.6802,14.1762 17.8469,15.5096 17,18.5C 15.2028,15.9041 13.8695,16.2374 13,19.5C 12.0158,24.6996 12.5158,29.6996 14.5,34.5C 15.5527,31.1849 15.5527,27.8515 14.5,24.5C 15.5,24.5 16.5,24.5 17.5,24.5C 17.6655,28.5138 17.4988,32.5138 17,36.5C 14.5459,38.013 12.8793,37.3463 12,34.5C 11.3333,28.5 11.3333,22.5 12,16.5C 12.7172,15.9558 13.2172,15.2891 13.5,14.5 Z"/></g>
<g><path style="opacity:1" fill="#5e5e5c" d="M 18.5,34.5 C 20.4646,34.9483 20.7979,35.9483 19.5,37.5C 18.6143,36.675 18.281,35.675 18.5,34.5 Z"/></g>
<g><path style="opacity:1" fill="#42403f" d="M 28.5,34.5 C 30.4646,34.9483 30.7979,35.9483 29.5,37.5C 28.6143,36.675 28.281,35.675 28.5,34.5 Z"/></g>
<g><path style="opacity:1" fill="#2d2c2b" d="M 46.5,34.5 C 48.4646,34.9483 48.7979,35.9483 47.5,37.5C 46.6143,36.675 46.281,35.675 46.5,34.5 Z"/></g>
<g><path style="opacity:1" fill="#8dc9de" d="M 21.5,40.5 C 23.717,41.3686 26.0504,41.702 28.5,41.5C 28.5,42.8333 28.5,44.1667 28.5,45.5C 26.1667,45.5 23.8333,45.5 21.5,45.5C 21.5,43.8333 21.5,42.1667 21.5,40.5 Z"/></g>
<g><path style="opacity:1" fill="#8dc8de" d="M 15.5,41.5 C 17.0418,42.3007 18.7085,42.634 20.5,42.5C 20.5,43.5 20.5,44.5 20.5,45.5C 17.8333,45.5 15.1667,45.5 12.5,45.5C 12.5,44.5 12.5,43.5 12.5,42.5C 13.791,42.7373 14.791,42.404 15.5,41.5 Z"/></g>
<g><path style="opacity:1" fill="#89c7dd" d="M 37.5,43.5 C 40.6248,42.5206 43.9581,42.1872 47.5,42.5C 47.6602,44.1992 47.4935,45.8659 47,47.5C 44.6667,44.8333 42.3333,44.8333 40,47.5C 38.3196,46.1602 37.4863,44.8268 37.5,43.5 Z"/></g>
</svg>
