<svg xmlns="http://www.w3.org/2000/svg" width="206" height="40" viewBox="0 0 506 135" version="1.1">
<path d="M 77 4.037 C 55.020 5.057, 43.779 7.396, 32.719 13.251 C 21.147 19.377, 10.577 34.058, 6.260 50 C 3.794 59.107, 3.844 82.867, 6.349 92 C 10.495 107.118, 20.030 121.929, 28.357 126.187 C 36.426 130.312, 41.747 131.124, 64.527 131.704 C 94.073 132.457, 145.887 128.952, 172.433 124.405 C 184.582 122.324, 198.687 117.599, 203.351 114.048 C 222.380 99.558, 227.179 61.211, 213.282 34.700 C 203.297 15.652, 186.650 6.740, 156 4.033 C 143.320 2.913, 101.189 2.915, 77 4.037 M 68.500 9.113 C 47.557 11.073, 33.474 16.264, 24.690 25.261 C 7.300 43.074, 3.426 79.484, 16.220 104.884 C 19.774 111.940, 26.827 120.365, 30.880 122.396 C 44.361 129.148, 97.055 128.935, 155.500 121.892 C 184.012 118.455, 196.136 114.965, 203.306 108.129 C 211.602 100.218, 216.412 85.467, 216.390 68 C 216.367 49.062, 211.119 35.187, 199.950 24.533 C 190.656 15.668, 179.105 11.129, 160.500 9.031 C 149.892 7.835, 81.503 7.896, 68.500 9.113 M 72.185 16.051 C 45.800 18.064, 31.272 25.848, 23.167 42.313 C 12.746 63.480, 16.066 92.735, 30.741 109.057 C 38.749 117.964, 47.949 119.567, 85.983 118.680 C 113.273 118.044, 141.075 116.033, 158.321 113.449 C 187.100 109.135, 194.013 105.558, 200.597 91.572 C 205.885 80.338, 207.185 68.285, 204.489 55.500 C 201.232 40.054, 192.417 28.369, 179.541 22.428 C 166.385 16.357, 161.573 15.791, 120.500 15.473 C 100.150 15.316, 78.408 15.576, 72.185 16.051 M 68.701 32.632 C 68.316 33.018, 67.964 45.296, 67.921 59.917 C 67.874 75.664, 67.500 85.481, 67.003 84 C 65.584 79.770, 57.206 46.843, 55.997 40.747 C 55.292 37.189, 54.196 34.640, 53.125 34.067 C 49.118 31.922, 48.961 33.254, 49.236 67.068 C 49.494 98.745, 49.547 99.500, 51.500 99.500 C 53.451 99.500, 53.494 98.914, 53.259 75.500 C 53.114 60.977, 53.368 52.290, 53.902 53.500 C 54.388 54.600, 57.371 65.175, 60.531 77 C 66.508 99.370, 67.890 102.583, 70.408 99.964 C 71.545 98.781, 71.881 92.163, 72.158 65.514 C 72.460 36.350, 72.321 32.494, 70.951 32.230 C 70.099 32.065, 69.087 32.246, 68.701 32.632 M 86.099 35.601 C 83.033 39.498, 82.493 43.767, 82.569 63.500 C 82.662 87.804, 85.121 97.263, 92.259 100.766 C 101.312 105.209, 105.849 89.907, 103.887 61.551 C 102.748 45.098, 101.402 39.248, 97.967 35.813 C 94.175 32.021, 88.988 31.928, 86.099 35.601 M 165.760 34.974 C 162.388 37.627, 160.857 44.056, 162.073 50.453 C 162.592 53.178, 165.016 59.703, 167.462 64.953 C 173.172 77.214, 174.330 82.361, 172.891 89.072 C 171.569 95.239, 168.857 98.393, 165.699 97.436 C 162.084 96.340, 161.636 96.422, 161.237 98.247 C 160.669 100.842, 165.373 102.362, 169.628 100.958 C 173.939 99.535, 176.517 96.182, 177.975 90.104 C 179.624 83.232, 178.101 76.246, 172.122 63.251 C 166.221 50.424, 165.252 45.725, 167.435 40.502 C 168.857 37.098, 169.276 36.805, 171.962 37.342 C 175.317 38.013, 176.763 36.624, 174.964 34.456 C 173.253 32.395, 168.713 32.651, 165.760 34.974 M 109.180 36.250 C 109.459 38.210, 110.176 38.539, 114.750 38.802 L 120 39.105 120 55.894 C 120 65.128, 120.295 78.830, 120.655 86.342 C 121.246 98.673, 121.488 100, 123.141 100 C 124.869 100, 124.986 98.288, 125.236 69.250 L 125.500 38.500 130.250 38.195 C 134.184 37.943, 135 37.556, 135 35.945 C 135 34.117, 134.211 34, 121.930 34 C 108.949 34, 108.863 34.015, 109.180 36.250 M 141.475 35.204 C 141.198 35.927, 141.090 50.689, 141.235 68.009 L 141.500 99.500 148 99.500 C 153.833 99.500, 154.500 99.295, 154.500 97.500 C 154.500 95.862, 153.731 95.444, 150.250 95.193 L 146 94.885 146 83.024 C 146 76.501, 145.727 70.452, 145.393 69.582 C 144.946 68.417, 145.408 67.996, 147.143 67.985 C 148.439 67.976, 150.128 67.572, 150.896 67.086 C 153.003 65.751, 151.411 63, 148.531 63 L 146 63 146 51.066 L 146 39.133 148.750 38.816 C 150.728 38.589, 151.500 37.938, 151.500 36.500 C 151.500 34.823, 150.732 34.451, 146.740 34.195 C 143.499 33.987, 141.819 34.309, 141.475 35.204 M 89.275 39.703 C 87.832 41.906, 87.437 45.152, 87.142 57.239 C 86.735 73.933, 88.148 86.441, 91.154 92.750 C 93.650 97.991, 95.593 98.137, 97.779 93.250 C 100.337 87.532, 100.250 53.938, 97.655 45.500 C 94.821 36.281, 92.548 34.708, 89.275 39.703 M 444 52.589 L 444 62.178 440.923 59.589 C 438.453 57.510, 436.793 57, 432.500 57 C 423.318 57, 418 63.419, 418 74.500 C 418 80.242, 419.866 86.090, 422.697 89.218 C 426.747 93.692, 436.701 93.508, 441.641 88.867 L 444 86.651 444 89.326 C 444 91.512, 444.457 92, 446.500 92 L 449 92 449 67.500 L 449 43 446.500 43 C 444.007 43, 444 43.027, 444 52.589 M 240 69 L 240 92 254 92 L 268 92 268 89.500 L 268 87 256.500 87 L 245 87 245 78.500 L 245 70 255 70 C 264.333 70, 265 69.867, 265 68 C 265 66.133, 264.333 66, 255 66 L 245 66 245 58.533 L 245 51.066 256.250 50.783 C 267.057 50.511, 267.513 50.411, 267.820 48.250 C 268.138 46.008, 268.088 46, 254.070 46 L 240 46 240 69 M 382.459 47.246 C 382.184 47.963, 382.081 58.213, 382.229 70.025 L 382.500 91.500 396.750 91.777 L 411 92.055 411 89.527 L 411 87 399.500 87 L 388 87 388 78.500 L 388 70 398 70 C 407.333 70, 408 69.867, 408 68 C 408 66.133, 407.333 66, 398 66 L 388 66 388 58.533 L 388 51.066 399.250 50.783 C 409.739 50.519, 410.500 50.365, 410.500 48.500 C 410.500 46.610, 409.741 46.485, 396.729 46.222 C 386.134 46.007, 382.844 46.244, 382.459 47.246 M 280.359 58.923 C 276.191 61.464, 275.448 62.876, 277.302 64.731 C 278.688 66.116, 279.109 66.059, 281.522 64.161 C 287.076 59.792, 296 60.864, 296 65.901 C 296 68.584, 294.134 69.759, 287.363 71.338 C 277.152 73.720, 275 75.700, 275 82.712 C 275 87.825, 277.206 90.709, 282.133 92.036 C 286.607 93.241, 290.951 92.259, 294.214 89.306 C 295.946 87.739, 296.151 87.770, 297.586 89.819 C 299.652 92.770, 306 92.959, 306 90.070 C 306 88.829, 305.196 88.025, 303.750 87.820 C 301.581 87.511, 301.482 87.040, 301 74.660 C 300.511 62.101, 300.438 61.767, 297.694 59.410 C 294.040 56.271, 285.119 56.020, 280.359 58.923 M 315.500 58.155 C 312.281 59.915, 311 62.140, 311 65.969 C 311 71.277, 313.267 73.744, 319.797 75.539 C 329.211 78.128, 330 78.624, 330 81.956 C 330 88.142, 320.780 89.960, 315.336 84.846 C 313.147 82.789, 312.831 82.741, 311.343 84.229 C 306.179 89.393, 320.875 94.872, 329.797 91.109 C 333.412 89.584, 336 85.564, 336 81.473 C 336 77.823, 331.240 73.390, 325.908 72.074 C 319.343 70.454, 316.540 68.715, 316.155 66.023 C 315.457 61.143, 322.749 59.330, 328.635 62.919 C 331.837 64.872, 334 64.230, 334 61.326 C 334 57.820, 320.380 55.485, 315.500 58.155 M 341.535 59.175 C 341.930 60.454, 344.896 68.144, 348.127 76.264 C 351.357 84.384, 354 91.944, 354 93.063 C 354 98.891, 349.014 102.973, 343.568 101.606 C 341.680 101.133, 340.988 101.461, 340.477 103.073 C 339.565 105.945, 340.307 106.385, 346.064 106.385 C 353.951 106.385, 355.581 104.093, 364.988 79.777 C 369.395 68.388, 373 58.604, 373 58.035 C 373 57.466, 371.924 57, 370.609 57 C 368.465 57, 367.778 58.215, 363.956 68.750 C 357.094 87.670, 358.136 87.442, 351.874 71.393 C 346.817 58.433, 346.264 57.478, 343.635 57.175 C 341.097 56.882, 340.889 57.080, 341.535 59.175 M 461 71.423 C 461 85.319, 461.091 85.954, 463.480 88.794 C 464.845 90.416, 467.381 92.026, 469.116 92.373 C 473.297 93.209, 479.734 91.398, 481.259 88.956 C 482.926 86.287, 484 86.500, 484 89.500 C 484 91.506, 484.498 92, 486.524 92 L 489.047 92 488.774 74.750 L 488.500 57.500 486 57.500 L 483.500 57.500 483 70.225 C 482.428 84.780, 481.457 86.727, 474.290 87.688 C 470.990 88.130, 469.911 87.821, 468.144 85.924 C 466.175 83.810, 466 82.538, 466 70.311 L 466 57 463.500 57 L 461 57 461 71.423 M 429.329 62.458 C 425.052 64.318, 423.643 67.333, 423.633 74.639 C 423.621 84.139, 428.079 88.958, 435.580 87.551 C 440.624 86.605, 443.309 82.878, 443.796 76.147 C 444.323 68.863, 442.279 64.432, 437.466 62.421 C 433.384 60.716, 433.333 60.716, 429.329 62.458 M 290 75.206 C 282.755 77.280, 280.965 78.289, 280.377 80.634 C 278.606 87.691, 288.377 90.906, 293.411 84.923 C 295.234 82.757, 296 80.685, 296 77.923 C 296 73.686, 295.732 73.565, 290 75.206" stroke="none" fill="#0aaa5c" fill-rule="evenodd"/><path d="M -0 67.502 L -0 135.004 253.250 134.752 L 506.500 134.500 506.757 67.250 L 507.014 -0 253.507 -0 L 0 0 -0 67.502 M 0.472 68 C 0.472 105.125, 0.597 120.313, 0.750 101.750 C 0.902 83.188, 0.902 52.813, 0.750 34.250 C 0.597 15.688, 0.472 30.875, 0.472 68 M 77 4.037 C 55.020 5.057, 43.779 7.396, 32.719 13.251 C 21.147 19.377, 10.577 34.058, 6.260 50 C 3.794 59.107, 3.844 82.867, 6.349 92 C 10.495 107.118, 20.030 121.929, 28.357 126.187 C 36.426 130.312, 41.747 131.124, 64.527 131.704 C 94.073 132.457, 145.887 128.952, 172.433 124.405 C 184.582 122.324, 198.687 117.599, 203.351 114.048 C 222.380 99.558, 227.179 61.211, 213.282 34.700 C 203.297 15.652, 186.650 6.740, 156 4.033 C 143.320 2.913, 101.189 2.915, 77 4.037 M 68.500 9.113 C 47.557 11.073, 33.474 16.264, 24.690 25.261 C 7.300 43.074, 3.426 79.484, 16.220 104.884 C 19.774 111.940, 26.827 120.365, 30.880 122.396 C 44.361 129.148, 97.055 128.935, 155.500 121.892 C 184.012 118.455, 196.136 114.965, 203.306 108.129 C 211.602 100.218, 216.412 85.467, 216.390 68 C 216.367 49.062, 211.119 35.187, 199.950 24.533 C 190.656 15.668, 179.105 11.129, 160.500 9.031 C 149.892 7.835, 81.503 7.896, 68.500 9.113 M 72.185 16.051 C 45.800 18.064, 31.272 25.848, 23.167 42.313 C 12.746 63.480, 16.066 92.735, 30.741 109.057 C 38.749 117.964, 47.949 119.567, 85.983 118.680 C 113.273 118.044, 141.075 116.033, 158.321 113.449 C 187.100 109.135, 194.013 105.558, 200.597 91.572 C 205.885 80.338, 207.185 68.285, 204.489 55.500 C 201.232 40.054, 192.417 28.369, 179.541 22.428 C 166.385 16.357, 161.573 15.791, 120.500 15.473 C 100.150 15.316, 78.408 15.576, 72.185 16.051 M 68.701 32.632 C 68.316 33.018, 67.964 45.296, 67.921 59.917 C 67.874 75.664, 67.500 85.481, 67.003 84 C 65.584 79.770, 57.206 46.843, 55.997 40.747 C 55.292 37.189, 54.196 34.640, 53.125 34.067 C 49.118 31.922, 48.961 33.254, 49.236 67.068 C 49.494 98.745, 49.547 99.500, 51.500 99.500 C 53.451 99.500, 53.494 98.914, 53.259 75.500 C 53.114 60.977, 53.368 52.290, 53.902 53.500 C 54.388 54.600, 57.371 65.175, 60.531 77 C 66.508 99.370, 67.890 102.583, 70.408 99.964 C 71.545 98.781, 71.881 92.163, 72.158 65.514 C 72.460 36.350, 72.321 32.494, 70.951 32.230 C 70.099 32.065, 69.087 32.246, 68.701 32.632 M 86.099 35.601 C 83.033 39.498, 82.493 43.767, 82.569 63.500 C 82.662 87.804, 85.121 97.263, 92.259 100.766 C 101.312 105.209, 105.849 89.907, 103.887 61.551 C 102.748 45.098, 101.402 39.248, 97.967 35.813 C 94.175 32.021, 88.988 31.928, 86.099 35.601 M 165.760 34.974 C 162.388 37.627, 160.857 44.056, 162.073 50.453 C 162.592 53.178, 165.016 59.703, 167.462 64.953 C 173.172 77.214, 174.330 82.361, 172.891 89.072 C 171.569 95.239, 168.857 98.393, 165.699 97.436 C 162.084 96.340, 161.636 96.422, 161.237 98.247 C 160.669 100.842, 165.373 102.362, 169.628 100.958 C 173.939 99.535, 176.517 96.182, 177.975 90.104 C 179.624 83.232, 178.101 76.246, 172.122 63.251 C 166.221 50.424, 165.252 45.725, 167.435 40.502 C 168.857 37.098, 169.276 36.805, 171.962 37.342 C 175.317 38.013, 176.763 36.624, 174.964 34.456 C 173.253 32.395, 168.713 32.651, 165.760 34.974 M 109.180 36.250 C 109.459 38.210, 110.176 38.539, 114.750 38.802 L 120 39.105 120 55.894 C 120 65.128, 120.295 78.830, 120.655 86.342 C 121.246 98.673, 121.488 100, 123.141 100 C 124.869 100, 124.986 98.288, 125.236 69.250 L 125.500 38.500 130.250 38.195 C 134.184 37.943, 135 37.556, 135 35.945 C 135 34.117, 134.211 34, 121.930 34 C 108.949 34, 108.863 34.015, 109.180 36.250 M 141.475 35.204 C 141.198 35.927, 141.090 50.689, 141.235 68.009 L 141.500 99.500 148 99.500 C 153.833 99.500, 154.500 99.295, 154.500 97.500 C 154.500 95.862, 153.731 95.444, 150.250 95.193 L 146 94.885 146 83.024 C 146 76.501, 145.727 70.452, 145.393 69.582 C 144.946 68.417, 145.408 67.996, 147.143 67.985 C 148.439 67.976, 150.128 67.572, 150.896 67.086 C 153.003 65.751, 151.411 63, 148.531 63 L 146 63 146 51.066 L 146 39.133 148.750 38.816 C 150.728 38.589, 151.500 37.938, 151.500 36.500 C 151.500 34.823, 150.732 34.451, 146.740 34.195 C 143.499 33.987, 141.819 34.309, 141.475 35.204 M 89.275 39.703 C 87.832 41.906, 87.437 45.152, 87.142 57.239 C 86.735 73.933, 88.148 86.441, 91.154 92.750 C 93.650 97.991, 95.593 98.137, 97.779 93.250 C 100.337 87.532, 100.250 53.938, 97.655 45.500 C 94.821 36.281, 92.548 34.708, 89.275 39.703 M 444 52.589 L 444 62.178 440.923 59.589 C 438.453 57.510, 436.793 57, 432.500 57 C 423.318 57, 418 63.419, 418 74.500 C 418 80.242, 419.866 86.090, 422.697 89.218 C 426.747 93.692, 436.701 93.508, 441.641 88.867 L 444 86.651 444 89.326 C 444 91.512, 444.457 92, 446.500 92 L 449 92 449 67.500 L 449 43 446.500 43 C 444.007 43, 444 43.027, 444 52.589 M 240 69 L 240 92 254 92 L 268 92 268 89.500 L 268 87 256.500 87 L 245 87 245 78.500 L 245 70 255 70 C 264.333 70, 265 69.867, 265 68 C 265 66.133, 264.333 66, 255 66 L 245 66 245 58.533 L 245 51.066 256.250 50.783 C 267.057 50.511, 267.513 50.411, 267.820 48.250 C 268.138 46.008, 268.088 46, 254.070 46 L 240 46 240 69 M 382.459 47.246 C 382.184 47.963, 382.081 58.213, 382.229 70.025 L 382.500 91.500 396.750 91.777 L 411 92.055 411 89.527 L 411 87 399.500 87 L 388 87 388 78.500 L 388 70 398 70 C 407.333 70, 408 69.867, 408 68 C 408 66.133, 407.333 66, 398 66 L 388 66 388 58.533 L 388 51.066 399.250 50.783 C 409.739 50.519, 410.500 50.365, 410.500 48.500 C 410.500 46.610, 409.741 46.485, 396.729 46.222 C 386.134 46.007, 382.844 46.244, 382.459 47.246 M 280.359 58.923 C 276.191 61.464, 275.448 62.876, 277.302 64.731 C 278.688 66.116, 279.109 66.059, 281.522 64.161 C 287.076 59.792, 296 60.864, 296 65.901 C 296 68.584, 294.134 69.759, 287.363 71.338 C 277.152 73.720, 275 75.700, 275 82.712 C 275 87.825, 277.206 90.709, 282.133 92.036 C 286.607 93.241, 290.951 92.259, 294.214 89.306 C 295.946 87.739, 296.151 87.770, 297.586 89.819 C 299.652 92.770, 306 92.959, 306 90.070 C 306 88.829, 305.196 88.025, 303.750 87.820 C 301.581 87.511, 301.482 87.040, 301 74.660 C 300.511 62.101, 300.438 61.767, 297.694 59.410 C 294.040 56.271, 285.119 56.020, 280.359 58.923 M 315.500 58.155 C 312.281 59.915, 311 62.140, 311 65.969 C 311 71.277, 313.267 73.744, 319.797 75.539 C 329.211 78.128, 330 78.624, 330 81.956 C 330 88.142, 320.780 89.960, 315.336 84.846 C 313.147 82.789, 312.831 82.741, 311.343 84.229 C 306.179 89.393, 320.875 94.872, 329.797 91.109 C 333.412 89.584, 336 85.564, 336 81.473 C 336 77.823, 331.240 73.390, 325.908 72.074 C 319.343 70.454, 316.540 68.715, 316.155 66.023 C 315.457 61.143, 322.749 59.330, 328.635 62.919 C 331.837 64.872, 334 64.230, 334 61.326 C 334 57.820, 320.380 55.485, 315.500 58.155 M 341.535 59.175 C 341.930 60.454, 344.896 68.144, 348.127 76.264 C 351.357 84.384, 354 91.944, 354 93.063 C 354 98.891, 349.014 102.973, 343.568 101.606 C 341.680 101.133, 340.988 101.461, 340.477 103.073 C 339.565 105.945, 340.307 106.385, 346.064 106.385 C 353.951 106.385, 355.581 104.093, 364.988 79.777 C 369.395 68.388, 373 58.604, 373 58.035 C 373 57.466, 371.924 57, 370.609 57 C 368.465 57, 367.778 58.215, 363.956 68.750 C 357.094 87.670, 358.136 87.442, 351.874 71.393 C 346.817 58.433, 346.264 57.478, 343.635 57.175 C 341.097 56.882, 340.889 57.080, 341.535 59.175 M 461 71.423 C 461 85.319, 461.091 85.954, 463.480 88.794 C 464.845 90.416, 467.381 92.026, 469.116 92.373 C 473.297 93.209, 479.734 91.398, 481.259 88.956 C 482.926 86.287, 484 86.500, 484 89.500 C 484 91.506, 484.498 92, 486.524 92 L 489.047 92 488.774 74.750 L 488.500 57.500 486 57.500 L 483.500 57.500 483 70.225 C 482.428 84.780, 481.457 86.727, 474.290 87.688 C 470.990 88.130, 469.911 87.821, 468.144 85.924 C 466.175 83.810, 466 82.538, 466 70.311 L 466 57 463.500 57 L 461 57 461 71.423 M 429.329 62.458 C 425.052 64.318, 423.643 67.333, 423.633 74.639 C 423.621 84.139, 428.079 88.958, 435.580 87.551 C 440.624 86.605, 443.309 82.878, 443.796 76.147 C 444.323 68.863, 442.279 64.432, 437.466 62.421 C 433.384 60.716, 433.333 60.716, 429.329 62.458 M 290 75.206 C 282.755 77.280, 280.965 78.289, 280.377 80.634 C 278.606 87.691, 288.377 90.906, 293.411 84.923 C 295.234 82.757, 296 80.685, 296 77.923 C 296 73.686, 295.732 73.565, 290 75.206" stroke="none" fill="#f8faf9" fill-rule="evenodd"/></svg>