<?xml version="1.0" encoding="UTF-8"?>
<!DOCTYPE svg PUBLIC "-//W3C//DTD SVG 1.1//EN" "http://www.w3.org/Graphics/SVG/1.1/DTD/svg11.dtd">
<svg xmlns="http://www.w3.org/2000/svg" version="1.1" width="490px" height="131px" style="shape-rendering:geometricPrecision; text-rendering:geometricPrecision; image-rendering:optimizeQuality; fill-rule:evenodd; clip-rule:evenodd" xmlns:xlink="http://www.w3.org/1999/xlink">
<g><path style="opacity:1" fill="#fdfdfd" d="M -0.5,-0.5 C 168.167,-0.5 336.833,-0.5 505.5,-0.5C 505.5,44.5 505.5,89.5 505.5,134.5C 336.833,134.5 168.167,134.5 -0.5,134.5C -0.5,89.5 -0.5,44.5 -0.5,-0.5 Z"/></g>
<g><path style="opacity:1" fill="#21c16a" d="M 78.5,2.5 C 106.519,2.14519 134.519,2.64519 162.5,4C 202.962,9.38349 222.462,32.5502 221,73.5C 220.04,86.7463 215.707,98.7463 208,109.5C 200.701,115.943 192.201,120.11 182.5,122C 137.492,129.539 92.1586,132.539 46.5,131C 31.8711,130.683 21.0378,124.183 14,111.5C 2.39053,89.0153 0.390532,65.682 8,41.5C 15.6682,22.501 29.5016,10.6677 49.5,6C 59.2703,4.45656 68.937,3.28989 78.5,2.5 Z"/></g>
<g><path style="opacity:1" fill="#f8fdfa" d="M 72.5,7.5 C 102.189,7.10416 131.855,7.60416 161.5,9C 192.699,11.2003 210.865,27.7003 216,58.5C 217.716,74.9667 214.382,90.3 206,104.5C 199.775,110.865 192.275,115.031 183.5,117C 137.46,124.503 91.127,127.503 44.5,126C 31.1057,124.609 21.6057,117.776 16,105.5C 7.68437,85.6315 6.35103,65.2981 12,44.5C 15.8985,33.2832 22.7318,24.4499 32.5,18C 45.2443,11.8302 58.5776,8.33019 72.5,7.5 Z"/></g>
<g><path style="opacity:1" fill="#0dbf64" d="M 73.5,14.5 C 98.8355,14.3334 124.169,14.5 149.5,15C 191.442,17.7277 209.608,39.8944 204,81.5C 201.803,88.2274 198.803,94.5608 195,100.5C 190.652,104.758 185.486,107.592 179.5,109C 134.828,117.15 89.8276,119.817 44.5,117C 35.3009,114.47 28.4676,108.97 24,100.5C 12.8608,77.0006 14.1941,54.3339 28,32.5C 33.9691,26.0985 41.1357,21.5985 49.5,19C 57.5607,17.0688 65.5607,15.5688 73.5,14.5 Z"/></g>
<g><path style="opacity:1" fill="#f3fbf7" d="M 54.5,55.5 C 54.628,53.3453 54.128,51.3453 53,49.5C 52.5001,65.8299 52.3334,82.1633 52.5,98.5C 51.4583,99.7911 50.2917,99.7911 49,98.5C 48.5,76.8359 48.3334,55.1692 48.5,33.5C 51.5468,32.8554 53.7135,33.8554 55,36.5C 58.539,52.9886 62.539,69.322 67,85.5C 67.3333,67.8333 67.6667,50.1667 68,32.5C 69.0113,31.6634 70.1779,31.33 71.5,31.5C 71.6666,53.8358 71.5,76.1692 71,98.5C 69.3333,99.8333 67.6667,99.8333 66,98.5C 62.3194,84.1097 58.486,69.7764 54.5,55.5 Z"/></g>
<g><path style="opacity:1" fill="#f1fbf6" d="M 87.5,32.5 C 92.1264,31.7004 95.9597,33.0337 99,36.5C 101.093,41.6282 102.426,46.9616 103,52.5C 103.667,64.1667 103.667,75.8333 103,87.5C 102.707,92.3899 100.874,96.5565 97.5,100C 90.7428,101.274 86.5762,98.4406 85,91.5C 81.2898,74.2818 80.6232,56.9484 83,39.5C 84.0121,36.7982 85.5121,34.4649 87.5,32.5 Z"/></g>
<g><path style="opacity:1" fill="#f2fbf6" d="M 167.5,32.5 C 170.798,32.0162 173.464,33.0162 175.5,35.5C 175.167,36.5 174.5,37.1667 173.5,37.5C 167.662,36.1603 164.996,38.6603 165.5,45C 165.881,48.5996 166.715,52.0996 168,55.5C 173.186,64.2288 176.686,73.5621 178.5,83.5C 177.969,89.2636 175.969,94.4303 172.5,99C 168.961,100.504 165.295,100.837 161.5,100C 160.663,98.9887 160.33,97.8221 160.5,96.5C 163.176,97.0081 165.843,97.1747 168.5,97C 173.027,91.6069 174.527,85.4402 173,78.5C 169.051,69.6036 165.384,60.6036 162,51.5C 161.333,47.1667 161.333,42.8333 162,38.5C 163.36,35.9774 165.193,33.9774 167.5,32.5 Z"/></g>
<g><path style="opacity:1" fill="#f8fdfa" d="M 133.5,37.5 C 130.5,37.5 127.5,37.5 124.5,37.5C 124.5,57.5 124.5,77.5 124.5,97.5C 123.923,99.6516 122.756,99.985 121,98.5C 120.5,78.4979 120,58.4979 119.5,38.5C 116.15,38.665 112.817,38.4983 109.5,38C 108.62,36.6439 108.286,35.1439 108.5,33.5C 116.84,33.3336 125.173,33.5003 133.5,34C 134.791,35.2917 134.791,36.4583 133.5,37.5 Z"/></g>
<g><path style="opacity:1" fill="#f2fbf7" d="M 150.5,66.5 C 148.5,66.5 146.5,66.5 144.5,66.5C 144.177,73.0221 144.51,79.3554 145.5,85.5C 145.5,88.5 145.5,91.5 145.5,94.5C 148.187,94.3359 150.854,94.5026 153.5,95C 154.833,96.3333 154.833,97.6667 153.5,99C 149.245,99.7961 145.079,99.6295 141,98.5C 140.333,77.1667 140.333,55.8333 141,34.5C 144.073,33.3832 147.24,33.2165 150.5,34C 151.833,35.3333 151.833,36.6667 150.5,38C 148.527,38.4955 146.527,38.6621 144.5,38.5C 144.5,46.5 144.5,54.5 144.5,62.5C 146.527,62.3379 148.527,62.5045 150.5,63C 151.791,64.2917 151.791,65.4583 150.5,66.5 Z"/></g>
<g><path style="opacity:1" fill="#10bf65" d="M 89.5,36.5 C 91.7224,36.178 93.5557,36.8446 95,38.5C 97.3531,43.2263 98.6864,48.2263 99,53.5C 100.108,66.9446 99.4411,80.2779 97,93.5C 96.6532,95.1802 95.6532,96.1802 94,96.5C 91.9743,95.4798 90.6409,93.8132 90,91.5C 88.3585,86.292 87.3585,80.9586 87,75.5C 86.3333,64.8333 86.3333,54.1667 87,43.5C 87.8471,41.1457 88.6805,38.8123 89.5,36.5 Z"/></g>
<g><path style="opacity:1" fill="#56d497" d="M 133.5,37.5 C 131.052,38.4731 128.385,38.8064 125.5,38.5C 125.83,58.3404 125.497,78.0071 124.5,97.5C 124.5,77.5 124.5,57.5 124.5,37.5C 127.5,37.5 130.5,37.5 133.5,37.5 Z"/></g>
<g><path style="opacity:1" fill="#0c0c0c" d="M 448.5,43.5 C 448.5,59.5 448.5,75.5 448.5,91.5C 446.833,91.5 445.167,91.5 443.5,91.5C 443.66,89.8008 443.494,88.1341 443,86.5C 438.078,91.2019 432.245,92.7019 425.5,91C 419.785,87.0688 417.119,81.5688 417.5,74.5C 417.386,61.441 423.72,55.6077 436.5,57C 439.233,57.9042 441.567,59.4042 443.5,61.5C 444.49,55.69 444.823,49.69 444.5,43.5C 445.833,43.5 447.167,43.5 448.5,43.5 Z"/></g>
<g><path style="opacity:1" fill="#60d599" d="M 244.5,50.5 C 251.648,49.5084 258.981,49.175 266.5,49.5C 266.5,48.5 266.5,47.5 266.5,46.5C 257.5,46.5 248.5,46.5 239.5,46.5C 239.5,61.5 239.5,76.5 239.5,91.5C 238.504,76.3424 238.17,61.0091 238.5,45.5C 248.167,45.5 257.833,45.5 267.5,45.5C 267.5,47.1667 267.5,48.8333 267.5,50.5C 259.833,50.5 252.167,50.5 244.5,50.5 Z"/></g>
<g><path style="opacity:1" fill="#484848" d="M 448.5,43.5 C 447.167,43.5 445.833,43.5 444.5,43.5C 444.823,49.69 444.49,55.69 443.5,61.5C 443.5,55.1667 443.5,48.8333 443.5,42.5C 445.415,42.2155 447.081,42.5489 448.5,43.5 Z"/></g>
<g><path style="opacity:1" fill="#22c26b" d="M 409.5,45.5 C 409.5,46.8333 409.5,48.1667 409.5,49.5C 401.981,49.175 394.648,49.5084 387.5,50.5C 387.5,55.5 387.5,60.5 387.5,65.5C 394.167,65.5 400.833,65.5 407.5,65.5C 407.5,66.8333 407.5,68.1667 407.5,69.5C 400.833,69.5 394.167,69.5 387.5,69.5C 387.5,75.1667 387.5,80.8333 387.5,86.5C 395.167,86.5 402.833,86.5 410.5,86.5C 410.5,88.1667 410.5,89.8333 410.5,91.5C 400.833,91.5 391.167,91.5 381.5,91.5C 381.5,76.1667 381.5,60.8333 381.5,45.5C 390.833,45.5 400.167,45.5 409.5,45.5 Z"/></g>
<g><path style="opacity:1" fill="#12bf65" d="M 244.5,50.5 C 244.5,55.5 244.5,60.5 244.5,65.5C 251.167,65.5 257.833,65.5 264.5,65.5C 264.5,66.8333 264.5,68.1667 264.5,69.5C 257.833,69.5 251.167,69.5 244.5,69.5C 244.5,75.1667 244.5,80.8333 244.5,86.5C 252.167,86.5 259.833,86.5 267.5,86.5C 267.5,88.1667 267.5,89.8333 267.5,91.5C 258.167,91.5 248.833,91.5 239.5,91.5C 239.5,76.5 239.5,61.5 239.5,46.5C 248.5,46.5 257.5,46.5 266.5,46.5C 266.5,47.5 266.5,48.5 266.5,49.5C 258.981,49.175 251.648,49.5084 244.5,50.5 Z"/></g>
<g><path style="opacity:1" fill="#6cd9a4" d="M 409.5,45.5 C 410.451,46.9187 410.784,48.5853 410.5,50.5C 402.833,50.5 395.167,50.5 387.5,50.5C 394.648,49.5084 401.981,49.175 409.5,49.5C 409.5,48.1667 409.5,46.8333 409.5,45.5 Z"/></g>
<g><path style="opacity:1" fill="#7adcac" d="M 54.5,55.5 C 53.8333,69.8333 53.1667,84.1667 52.5,98.5C 52.3334,82.1633 52.5001,65.8299 53,49.5C 54.128,51.3453 54.628,53.3453 54.5,55.5 Z"/></g>
<g><path style="opacity:1" fill="#101010" d="M 282.5,56.5 C 286.182,56.3347 289.848,56.5014 293.5,57C 295.848,57.3459 297.681,58.5125 299,60.5C 300.275,69.065 300.942,77.7316 301,86.5C 302.356,87.3802 303.856,87.7135 305.5,87.5C 305.5,88.8333 305.5,90.1667 305.5,91.5C 300.594,92.6869 297.261,91.0203 295.5,86.5C 294.307,88.5267 292.64,90.0267 290.5,91C 277.064,93.406 272.397,88.2393 276.5,75.5C 278.028,74.1387 279.695,72.972 281.5,72C 285.58,71.3134 289.58,70.3134 293.5,69C 296.481,63.7664 294.814,60.933 288.5,60.5C 287.167,60.6667 285.833,60.8333 284.5,61C 282.309,62.9194 279.976,64.2527 277.5,65C 275.993,64.1627 275.493,62.9961 276,61.5C 278.326,59.9343 280.492,58.2676 282.5,56.5 Z"/></g>
<g><path style="opacity:1" fill="#121212" d="M 316.5,56.5 C 320.182,56.3347 323.848,56.5014 327.5,57C 330.209,57.5408 332.209,59.0408 333.5,61.5C 333.113,62.7199 332.28,63.3865 331,63.5C 326.918,60.7094 322.418,59.8761 317.5,61C 314.887,63.7953 314.887,66.6286 317.5,69.5C 321.404,70.9762 325.404,72.1428 329.5,73C 335.957,76.8917 337.124,82.0584 333,88.5C 327.539,91.4119 321.706,92.2452 315.5,91C 311.71,90.2297 309.877,88.063 310,84.5C 311.833,81.6667 313.333,81.8333 314.5,85C 319.147,88.0039 323.814,88.1706 328.5,85.5C 329.777,82.9659 329.777,80.4659 328.5,78C 324.289,76.2905 319.956,74.9572 315.5,74C 308.599,67.7201 308.932,61.8868 316.5,56.5 Z"/></g>
<g><path style="opacity:1" fill="#111111" d="M 340.5,56.5 C 342.467,56.2606 344.301,56.5939 346,57.5C 349.39,66.6136 353.057,75.6136 357,84.5C 360.794,75.6181 364.294,66.6181 367.5,57.5C 369.045,56.5481 370.712,56.2148 372.5,56.5C 367.241,71.6909 361.408,86.6909 355,101.5C 350.909,105.305 346.076,106.472 340.5,105C 339.804,103.512 340.138,102.012 341.5,100.5C 349.099,102.861 353.099,100.028 353.5,92C 349.589,80.0119 345.256,68.1786 340.5,56.5 Z"/></g>
<g><path style="opacity:1" fill="#0b0b0b" d="M 482.5,78.5 C 483.491,71.6866 483.825,64.6866 483.5,57.5C 484.833,57.5 486.167,57.5 487.5,57.5C 487.5,68.8333 487.5,80.1667 487.5,91.5C 486.167,91.5 484.833,91.5 483.5,91.5C 483.662,89.4727 483.495,87.4727 483,85.5C 478.914,91.1181 473.414,92.9514 466.5,91C 464.714,90.2155 463.214,89.0488 462,87.5C 460.574,77.2456 460.074,66.9122 460.5,56.5C 462.167,56.5 463.833,56.5 465.5,56.5C 465.052,66.2726 465.552,75.9393 467,85.5C 475.094,89.535 480.261,87.2017 482.5,78.5 Z"/></g>
<g><path style="opacity:1" fill="#727272" d="M 487.5,91.5 C 487.5,80.1667 487.5,68.8333 487.5,57.5C 486.167,57.5 484.833,57.5 483.5,57.5C 483.825,64.6866 483.491,71.6866 482.5,78.5C 482.5,71.1667 482.5,63.8333 482.5,56.5C 484.5,56.5 486.5,56.5 488.5,56.5C 488.828,68.3453 488.495,80.012 487.5,91.5 Z"/></g>
<g><path style="opacity:1" fill="#f6f6f6" d="M 429.5,60.5 C 442.102,61.3159 446.602,67.9826 443,80.5C 439.578,87.2957 434.411,89.129 427.5,86C 422.798,81.0782 421.298,75.2448 423,68.5C 424.305,65.0386 426.471,62.372 429.5,60.5 Z"/></g>
<g><path style="opacity:1" fill="#8ae1b7" d="M 150.5,66.5 C 149.081,67.4511 147.415,67.7845 145.5,67.5C 145.5,73.5 145.5,79.5 145.5,85.5C 144.51,79.3554 144.177,73.0221 144.5,66.5C 146.5,66.5 148.5,66.5 150.5,66.5 Z"/></g>
<g><path style="opacity:1" fill="#f5f5f5" d="M 294.5,72.5 C 296.027,76.9251 295.527,81.2585 293,85.5C 288.335,88.4558 284.002,88.1225 280,84.5C 279.333,82.5 279.333,80.5 280,78.5C 284.686,75.9638 289.519,73.9638 294.5,72.5 Z"/></g>
</svg>
